<?xml version="1.0" encoding="utf-8"?>
<!-- Generator: Adobe Illustrator 18.1.0, SVG Export Plug-In . SVG Version: 6.00 Build 0)  -->
<svg version="1.1" id="Layer_1" xmlns="http://www.w3.org/2000/svg" xmlns:xlink="http://www.w3.org/1999/xlink" x="0px" y="0px"
	 viewBox="0 0 472.2 57.1" enable-background="new 0 0 472.2 57.1" xml:space="preserve">
<g>
	<g>
		<path fill="#ED3481" d="M111.2,2.5L93.1,57.1H104l3.4-10.5H131l3.5,10.5h10.7L126.8,2.5H111.2z M109.9,39l9.3-28.4l9.4,28.4H109.9
			z M188.1,28.7c-2.4-1.9-7.6-3-15.8-3.5c-6.9-0.4-10.9-0.9-12.1-1.6s-1.8-2.8-1.8-6.2c0-2.9,0.8-4.8,2.3-5.7
			c1.5-0.9,4.7-1.4,9.6-1.4c4.2,0,6.8,0.4,7.9,1.2c1.1,0.8,1.8,2.7,2,5.8c0,0.2,0,0.6,0.1,1.1h10.1v-2.1c0-5.6-1.4-9.4-4.3-11.4
			c-2.8-1.9-8.4-2.9-16.6-2.9c-8.7,0-14.4,1.1-17.3,3.2c-2.9,2.1-4.3,6.4-4.3,12.7c0,6.2,1.2,10.3,3.6,12.2
			c2.4,1.9,7.9,3.1,16.5,3.6l5.7,0.4c3.2,0.2,5.3,0.7,6.3,1.6c1,0.9,1.5,2.6,1.5,5.3c0,3.6-0.6,5.8-1.9,6.8c-1.3,1-4.2,1.5-8.9,1.5
			c-5.9,0-9.6-0.4-10.9-1.3c-1.3-0.9-2-3.2-2-7l0-1.2h-10.1l0,2c0,6.3,1.4,10.5,4.2,12.6c2.8,2.1,8.5,3.1,17.1,3.1
			c9.5,0,15.7-1.1,18.5-3.2s4.2-6.8,4.2-14C191.7,34.5,190.5,30.6,188.1,28.7z M63,32.9h25.6v-7.6H63V11.3h27V2.5H52.7v54.5h37.6
			v-8.7H63V32.9z M43,28.7c-2.4-1.9-7.6-3-15.8-3.5c-6.9-0.4-10.9-0.9-12.1-1.6c-1.2-0.7-1.8-2.8-1.8-6.2c0-2.9,0.8-4.8,2.3-5.7
			c1.5-0.9,4.7-1.4,9.6-1.4c4.2,0,6.8,0.4,7.9,1.2c1.1,0.8,1.8,2.7,2,5.8c0,0.2,0,0.6,0.1,1.1h10.1v-2.1c0-5.6-1.4-9.4-4.3-11.4
			C38.1,3,32.6,2.1,24.4,2.1C15.8,2.1,10,3.1,7.1,5.2C4.2,7.4,2.8,11.6,2.8,18c0,6.2,1.2,10.3,3.6,12.2c2.4,1.9,7.9,3.1,16.5,3.6
			l5.7,0.4c3.2,0.2,5.3,0.7,6.3,1.6c1,0.9,1.5,2.6,1.5,5.3c0,3.6-0.6,5.8-1.9,6.8c-1.3,1-4.2,1.5-8.9,1.5c-5.9,0-9.6-0.4-10.9-1.3
			c-1.3-0.9-2-3.2-2-7l0-1.2H2.6l0,2c0,6.3,1.4,10.5,4.2,12.6c2.8,2.1,8.5,3.1,17.1,3.1c9.5,0,15.7-1.1,18.5-3.2
			c2.8-2.1,4.2-6.8,4.2-14C46.6,34.5,45.4,30.6,43,28.7z M447.7,28.8l24.9-26.3h-8l-22.4,23.8h-5.4V2.5h-6.2v54.5h6.2V31.5h5.4
			l24.9,25.5h8.4L447.7,28.8z M323.6,2.5h-6.2v54.5h34.2v-5.7h-28V2.5z M414.2,48l0,2.1l0,2h-0.2l-2.6-4.3l-2.6-4.2l-5.2-8.5
			L383.8,2.5h-10.1v54.5h6.2V11.9l0-2.1l0-2h0.2l1.8,3l1.8,3l3.7,6.1l22.9,37.1h10.1V2.5h-6.2V48z M357.1,57.1h6.2V2.5h-6.2V57.1z
			 M221.5,2.1c-11.1,0-18.1,1.7-21,5c-2.8,3.3-4.3,11.5-4.3,24.5c0,10.9,1.5,18,4.4,21.2c2.9,3.2,9.3,4.8,19.2,4.8
			c11,0,17.9-1.6,20.8-4.9c2.9-3.2,4.3-11.1,4.3-23.6c0-11.4-1.4-18.8-4.3-22.1C237.8,3.7,231.4,2.1,221.5,2.1z M232.5,46
			c-1.3,1.8-5.1,2.7-11.5,2.7c-6.7,0-10.8-0.8-12.1-2.4c-1.4-1.6-2.1-6.3-2.1-14.1c0-10.6,0.6-16.8,1.8-18.5
			c1.2-1.8,5.2-2.7,12.2-2.7c6.7,0,10.7,0.8,11.9,2.5c1.2,1.7,1.8,7.1,1.8,16.2C234.4,38.7,233.8,44.2,232.5,46z M292.2,33.9l0.1,7
			l0.1,3.5l0.1,3.5h-0.4l-2.1-4.5l-2.1-4.4c-1.7-3.5-3.1-6.5-4.4-8.9L269.5,2.5h-17.5v54.5h10.3V25.8l-0.1-7.2l-0.1-3.6l-0.2-3.6
			h0.4l1.7,3.9l1.8,3.9c1.7,3.7,2.9,6.3,3.6,7.8L285,57.1h17.5V2.5h-10.3V33.9z"/>
	</g>
</g>
</svg>
